<svg width="31" height="31" viewBox="0 0 31 31" fill="none" xmlns="http://www.w3.org/2000/svg">
<path d="M14.0554 0.827536C13.8603 0.847436 13.6752 0.924192 13.5232 1.04825C13.3715 1.1723 13.2594 1.33822 13.2012 1.52559L12.0449 5.19218C11.6797 5.32114 11.3207 5.47492 10.9721 5.64007L7.56572 3.86943V3.86917C7.37757 3.77122 7.16306 3.73556 6.95346 3.76734C6.74385 3.79912 6.5495 3.89682 6.39908 4.0462L4.04487 6.40013V6.40038C3.89549 6.5508 3.79779 6.74489 3.76601 6.95475C3.73396 7.16435 3.76963 7.37887 3.86784 7.56675L5.63876 10.9728C5.47361 11.3214 5.31983 11.6804 5.19087 12.0456L1.52425 13.2019H1.52399C1.32085 13.2665 1.1433 13.3942 1.01769 13.5666C0.892347 13.739 0.825145 13.947 0.826184 14.1603V17.4934C0.82515 17.7067 0.892088 17.9147 1.01769 18.0871C1.1433 18.2595 1.32059 18.3872 1.52399 18.4518L5.19061 19.6081C5.31958 19.9733 5.47335 20.3322 5.6385 20.6809L3.86758 24.0869H3.86784C3.76963 24.2748 3.73397 24.4893 3.76601 24.6989C3.7978 24.9088 3.89549 25.1029 4.04487 25.2533L6.39908 27.6072V27.6075C6.5495 27.7569 6.74385 27.8546 6.95346 27.8864C7.16332 27.9181 7.37757 27.8825 7.56572 27.7845L10.9721 26.0136C11.3207 26.1788 11.6799 26.3326 12.0449 26.4615L13.2012 30.1281C13.2656 30.3315 13.3932 30.5088 13.5659 30.6344C13.7383 30.76 13.9463 30.8272 14.1595 30.8262H17.493H17.4928C17.7063 30.8272 17.9143 30.76 18.0867 30.6344C18.2591 30.5088 18.3868 30.3315 18.4511 30.1281L19.6074 26.4615C19.9726 26.3326 20.3316 26.1788 20.6803 26.0136L24.0866 27.7845C24.2748 27.8825 24.4893 27.9181 24.6989 27.8864C24.9087 27.8546 25.1028 27.7569 25.2532 27.6075L27.6075 25.2536V25.2533C27.7568 25.1029 27.8545 24.9088 27.8866 24.6989C27.9184 24.4893 27.8827 24.2748 27.7845 24.0869L26.0136 20.6809C26.1787 20.3323 26.3325 19.9733 26.4615 19.6081L30.1281 18.4518H30.1283C30.3317 18.3872 30.509 18.2595 30.6346 18.0871C30.7603 17.9147 30.8274 17.7067 30.8262 17.4934V14.1603C30.8274 13.947 30.7603 13.739 30.6346 13.5666C30.509 13.3942 30.3317 13.2663 30.1283 13.2019L26.4617 12.0456C26.3328 11.6804 26.179 11.3215 26.0138 10.9728L27.7848 7.56675H27.7845C27.8827 7.3786 27.9184 7.16435 27.8866 6.95449C27.8545 6.74489 27.7568 6.5508 27.6075 6.40013L25.2532 4.0462C25.1028 3.89682 24.9087 3.79912 24.6989 3.76708C24.4893 3.73529 24.2748 3.77095 24.0866 3.86916L20.6803 5.6398C20.3316 5.47465 19.9724 5.32088 19.6074 5.19191L18.4511 1.52533C18.3868 1.32219 18.2591 1.14464 18.0867 1.01929C17.9143 0.893692 17.7063 0.82649 17.4928 0.827529H14.1593H14.1595C14.1249 0.82572 14.09 0.825727 14.0554 0.827536ZM14.8992 2.82742H16.7533L17.8262 6.23346C17.9282 6.55161 18.182 6.79791 18.5033 6.88966C19.1215 7.07419 19.703 7.31119 20.2532 7.60838C20.5447 7.76732 20.896 7.7712 21.1909 7.61898L24.347 5.97319L25.6804 7.30649L24.0346 10.4626V10.4624C23.8823 10.7573 23.8862 11.1085 24.0449 11.3998C24.3421 11.95 24.5791 12.5315 24.7636 13.1497C24.8556 13.4709 25.1019 13.725 25.4198 13.8268L28.8262 14.8996V16.7537L25.4198 17.8265C25.1019 17.9286 24.8556 18.1826 24.7636 18.5036C24.5791 19.1218 24.3421 19.7033 24.0449 20.2535C23.8862 20.5451 23.8823 20.896 24.0346 21.1909L25.6804 24.3471L24.347 25.6804L21.1909 24.0346C20.896 23.8824 20.5448 23.8862 20.2532 24.0449C19.703 24.3421 19.1215 24.5791 18.5033 24.7637C18.182 24.8557 17.928 25.1017 17.8262 25.4198L16.7533 28.8259H14.8992L13.8261 25.4198C13.7243 25.102 13.4703 24.8557 13.149 24.7637C12.5308 24.5791 11.9493 24.3421 11.3991 24.0449C11.1076 23.8862 10.7566 23.8824 10.4617 24.0346L7.30552 25.6804L5.9722 24.3471L7.618 21.1909L7.61775 21.1912C7.77023 20.8963 7.76635 20.5451 7.60741 20.2535C7.31019 19.7033 7.0732 19.1218 6.88868 18.5036C6.79667 18.1826 6.55063 17.9286 6.23248 17.8268L2.82614 16.7537V14.8996L6.23248 13.8268C6.55063 13.725 6.79667 13.4709 6.88868 13.1497C7.07322 12.5315 7.31021 11.95 7.60741 11.3998V11.4C7.76635 11.1085 7.77023 10.7573 7.61775 10.4624L5.97194 7.30622L7.30526 5.97292L10.4614 7.61871L10.4617 7.61897C10.7566 7.77119 11.1078 7.76732 11.3991 7.60837C11.9493 7.31116 12.5308 7.07416 13.149 6.88965C13.4703 6.7979 13.7243 6.5516 13.8261 6.23345L14.899 2.82741L14.8992 2.82742ZM15.8263 10.1602C12.7086 10.1602 10.1596 12.709 10.1596 15.8267C10.1596 18.9443 12.7084 21.4931 15.8263 21.4931C18.944 21.4931 21.493 18.9444 21.493 15.8267C21.493 12.709 18.9442 10.1602 15.8263 10.1602ZM15.8263 12.1601C17.8631 12.1601 19.4929 13.7899 19.4929 15.8267C19.4929 17.8635 17.8631 19.4933 15.8263 19.4933C13.7895 19.4933 12.1597 17.8635 12.1597 15.8267C12.1597 13.7899 13.7895 12.1601 15.8263 12.1601Z" fill="white"/>
</svg>
